<?xml version="1.0" standalone="no"?>
<!DOCTYPE svg PUBLIC "-//W3C//DTD SVG 20010904//EN"
 "http://www.w3.org/TR/2001/REC-SVG-20010904/DTD/svg10.dtd">
<svg version="1.0" xmlns="http://www.w3.org/2000/svg"
 width="16.000000pt" height="16.000000pt" viewBox="0 0 16.000000 16.000000"
 preserveAspectRatio="xMidYMid meet">
<metadata>
Created by potrace 1.11, written by Peter Selinger 2001-2013
</metadata>
<g transform="translate(0.000000,16.000000) scale(0.003125,-0.003125)"
fill="#000000" stroke="none">
<path d="M1240 4090 c-36 -22 -107 -57 -159 -77 -52 -20 -101 -45 -110 -56 -9
-11 -36 -42 -60 -69 -24 -27 -41 -51 -38 -55 4 -3 45 7 93 22 74 24 95 27 158
22 56 -5 159 -34 185 -53 2 -2 -6 -16 -18 -33 -21 -30 -132 -253 -128 -257 1
-2 83 -35 182 -74 225 -90 519 -256 640 -361 29 -25 102 -74 164 -108 61 -35
111 -67 111 -71 0 -14 -118 -26 -282 -28 -90 -1 -191 -9 -235 -17 -49 -10 -98
-13 -132 -9 -73 9 -66 -17 9 -31 50 -10 51 -11 27 -22 -14 -7 -43 -42 -66 -80
l-41 -68 35 -35 c19 -20 35 -41 35 -47 0 -6 -14 -17 -32 -26 -28 -14 -36 -14
-67 -1 -47 20 -53 26 -103 102 l-43 66 -3 -52 c-4 -77 -37 -95 -119 -65 -13 4
-11 -1 10 -24 18 -19 27 -40 27 -62 l0 -34 -45 6 c-38 6 -45 4 -45 -11 0 -10
19 -28 43 -41 l42 -25 -45 -12 c-25 -7 -37 -12 -28 -13 29 -2 31 -21 7 -48
l-24 -26 48 6 c42 6 48 4 45 -10 -2 -9 -22 -23 -46 -31 l-44 -14 26 -27 c31
-32 33 -45 6 -36 -26 8 -25 -2 2 -25 l23 -18 -28 -13 c-22 -10 -27 -19 -27
-46 0 -39 3 -39 66 -13 26 11 51 19 55 18 5 -2 0 -22 -11 -45 -10 -24 -17 -43
-15 -43 2 0 15 11 29 25 16 16 36 25 56 25 16 0 30 5 30 11 0 6 8 8 18 5 13
-4 27 9 56 54 34 54 48 65 127 106 49 25 89 49 89 54 0 4 24 23 54 43 42 28
58 46 72 82 l18 47 49 -7 c63 -8 83 -18 101 -53 15 -30 16 -28 -49 -206 -15
-42 -16 -58 -7 -109 6 -33 22 -76 36 -96 14 -20 59 -107 102 -193 l78 -158 38
0 c36 0 41 -4 79 -62 l41 -63 -5 -210 c-6 -216 -21 -321 -53 -356 -8 -9 -30
-20 -47 -23 -18 -3 -54 -17 -82 -30 l-50 -24 200 -1 c182 0 198 1 173 15 -15
8 -30 25 -34 38 -3 13 5 156 19 317 l24 294 -37 85 c-34 77 -36 87 -25 114 20
48 -12 118 -81 182 -45 41 -55 56 -49 73 3 12 18 23 33 27 15 3 124 31 242 61
209 54 218 57 335 126 66 39 151 91 188 115 95 61 264 139 345 158 37 9 77 26
89 37 21 19 21 21 7 56 -8 20 -27 49 -42 64 -22 23 -34 27 -67 25 -39 -3 -40
-4 -43 -44 -3 -35 -7 -43 -38 -57 -19 -10 -36 -17 -37 -17 -1 0 -1 60 1 132 3
97 9 148 23 190 10 31 28 112 40 180 12 68 23 125 26 127 2 3 10 -5 19 -17 25
-36 107 -72 163 -72 31 0 63 -7 83 -19 18 -10 49 -22 68 -25 19 -3 57 -17 84
-31 27 -14 60 -25 73 -25 16 0 49 -24 98 -70 69 -65 77 -70 119 -70 25 0 48 5
52 11 5 8 33 9 92 5 l86 -7 85 88 84 88 -196 3 -197 2 1 108 c0 68 7 131 18
174 16 61 16 68 2 73 -9 2 -154 34 -323 70 -291 62 -314 65 -441 65 -186 0
-174 10 -309 -259 -59 -117 -109 -218 -111 -224 -1 -5 -94 29 -205 76 -216 92
-380 185 -701 400 -245 163 -551 398 -580 444 -14 21 -34 65 -45 98 -27 77
-46 81 -136 25z m1134 -1222 l45 -22 -34 -38 c-19 -21 -35 -45 -35 -53 0 -8
-8 -15 -18 -15 -10 0 -45 -16 -77 -35 l-58 -36 -29 28 c-19 18 -28 37 -28 59
0 29 -6 36 -55 64 -69 39 -71 55 -7 47 26 -3 81 1 122 8 108 18 124 17 174 -7z
m-607 -24 c-3 -3 -12 -4 -19 -1 -8 3 -5 6 6 6 11 1 17 -2 13 -5z m772 -62 c88
-51 89 -62 4 -61 -92 1 -155 11 -161 27 -5 16 55 72 77 72 9 0 45 -17 80 -38z"/>
</g>
</svg>
